<?xml version="1.0" encoding="UTF-8" standalone="no"?>
<!DOCTYPE svg PUBLIC "-//W3C//DTD SVG 1.1//EN" "http://www.w3.org/Graphics/SVG/1.1/DTD/svg11.dtd">
<svg width="100%" height="100%" viewBox="0 0 256 256" version="1.1" xmlns="http://www.w3.org/2000/svg" xmlns:xlink="http://www.w3.org/1999/xlink" xml:space="preserve" xmlns:serif="http://www.serif.com/" style="fill-rule:evenodd;clip-rule:evenodd;stroke-linejoin:round;stroke-miterlimit:2;">
    <g transform="matrix(9.68233,0,0,9.68233,11.8217,6.8309)">
        <path d="M2.648,11.678C1.61,9.868 1.399,8.174 2.137,6.897C3.125,5.185 5.605,4.587 8.741,5.158C8.9,5.18 9.02,5.317 9.02,5.477C9.02,5.654 8.874,5.799 8.698,5.799C8.674,5.799 8.649,5.796 8.626,5.791C5.726,5.263 3.515,5.796 2.694,7.219C2.089,8.266 2.271,9.728 3.206,11.359C3.239,11.411 3.257,11.471 3.257,11.533C3.257,11.709 3.111,11.855 2.935,11.855C2.814,11.855 2.703,11.787 2.648,11.679L2.648,11.678ZM17.568,5.609C19.403,5.633 20.724,6.205 21.319,7.235C22.139,8.654 21.499,10.83 19.601,13.072C19.543,13.132 19.511,13.212 19.511,13.295C19.511,13.472 19.656,13.617 19.833,13.617C19.935,13.617 20.03,13.569 20.091,13.488C22.145,11.062 22.862,8.622 21.876,6.913C21.15,5.656 19.616,4.993 17.577,4.966C17.57,4.966 17.563,4.965 17.556,4.965C17.379,4.965 17.234,5.111 17.234,5.287C17.234,5.464 17.379,5.609 17.556,5.609C17.56,5.609 17.565,5.609 17.569,5.609L17.568,5.609ZM15.714,20.848C15.664,20.818 15.606,20.802 15.548,20.802C15.435,20.802 15.33,20.861 15.272,20.958C14.338,22.511 13.192,23.357 12.012,23.357C10.37,23.357 8.804,21.71 7.812,18.939C7.769,18.806 7.645,18.716 7.506,18.716C7.329,18.716 7.184,18.861 7.184,19.038C7.184,19.078 7.191,19.118 7.206,19.156C8.279,22.154 10.036,24 12.01,24C13.45,24 14.783,23.018 15.823,21.29C15.853,21.24 15.869,21.182 15.869,21.124C15.869,21.011 15.81,20.906 15.713,20.848L15.714,20.848ZM23.07,18.254C23.069,19.098 22.374,19.791 21.53,19.791C21.209,19.791 20.895,19.691 20.634,19.504C18.179,20.949 13.488,20.214 9.074,17.664C7.194,16.579 5.547,15.272 4.279,13.879C4.22,13.819 4.186,13.738 4.186,13.653C4.186,13.476 4.332,13.331 4.508,13.331C4.603,13.331 4.694,13.373 4.755,13.446C5.977,14.789 7.572,16.055 9.395,17.107C13.562,19.513 17.948,20.227 20.192,19.013C20.06,18.781 19.99,18.518 19.99,18.251C19.99,17.406 20.685,16.711 21.53,16.711C22.375,16.711 23.07,17.406 23.07,18.251C23.07,18.252 23.07,18.253 23.07,18.254ZM4.008,18.254C4.008,18.255 4.008,18.256 4.008,18.257C4.008,19.102 3.313,19.797 2.468,19.797C1.623,19.797 0.928,19.102 0.928,18.257C0.928,17.697 1.233,17.18 1.723,16.909C1.49,14.032 4.513,10.175 9.083,7.537C10.981,6.441 12.957,5.663 14.814,5.266C14.829,5.264 14.844,5.263 14.859,5.263C15.036,5.263 15.181,5.408 15.181,5.585C15.181,5.728 15.086,5.854 14.949,5.894C13.159,6.278 11.246,7.031 9.404,8.094C5.1,10.579 2.256,14.161 2.356,16.721C2.394,16.718 2.431,16.715 2.469,16.715C3.319,16.715 4.009,17.405 4.009,18.255L4.008,18.254ZM10.472,1.54C10.502,0.717 11.187,0.055 12.011,0.055C12.835,0.055 13.52,0.717 13.55,1.54C13.55,1.563 13.548,1.585 13.547,1.607C16.096,2.924 17.867,7.417 17.867,12.61C17.867,14.745 17.569,16.794 17.013,18.57C16.976,18.711 16.847,18.81 16.702,18.81C16.525,18.81 16.38,18.665 16.38,18.488C16.38,18.451 16.386,18.413 16.399,18.378C16.935,16.666 17.224,14.681 17.224,12.61C17.224,7.72 15.598,3.515 13.377,2.247C13.114,2.758 12.585,3.08 12.01,3.08C11.166,3.08 10.472,2.386 10.472,1.542C10.472,1.541 10.472,1.541 10.472,1.54ZM11.776,11.521C11.265,11.631 10.897,12.087 10.897,12.61C10.897,13.221 11.4,13.724 12.011,13.724C12.09,13.724 12.169,13.716 12.246,13.699C12.757,13.589 13.125,13.133 13.125,12.61C13.125,11.999 12.622,11.496 12.011,11.496C11.932,11.496 11.853,11.504 11.776,11.521Z" style="fill-rule:nonzero;"/>
    </g>
</svg>
